<svg xmlns="http://www.w3.org/2000/svg" width="186" height="186" viewBox="0 0 186 186">
  <g fill="none" fill-rule="evenodd">
    <path fill="#74B9FF" d="M30.190654,0.0526923493 L184.227973,21.7012257 C185.33281,21.8565004 186.102582,22.878023 185.947308,23.9828601 L164.298774,178.020179 C164.1435,179.125016 163.121977,179.894789 162.01714,179.739514 L7.9798211,158.09098 C6.87498393,157.935706 6.10521149,156.914183 6.26048623,155.809346 L27.9090196,1.77202722 C28.0642943,0.667190055 29.0858169,-0.102582389 30.190654,0.0526923493 Z"/>
    <path fill="#FAB1A0" d="M16.0034776,12.95 L171.175695,23.8006985 C172.288672,23.8785254 173.127827,24.843863 173.05,25.9568402 L162.199302,181.129057 C162.121475,182.242034 161.156137,183.08119 160.04316,183.003363 L4.87094283,172.152664 C3.75796557,172.074837 2.91881044,171.1095 2.99663739,169.996522 L13.8473358,14.8243055 C13.9251628,13.7113282 14.8905003,12.8721731 16.0034776,12.95 Z"/>
    <rect width="160" height="160" y="26" fill="#FFEAA7" rx="2"/>
    <g fill="#9B9B9B" fill-rule="nonzero" transform="translate(51 43)">
      <path d="M58.6735714,113.403239 L49.2042857,113.403239 L49.2042857,110.52107 L52.0221429,110.52107 C52.4271429,110.52107 52.7592857,110.19033 52.7592857,109.782273 L52.7592857,106.635941 C52.7592857,106.230033 52.4292857,105.897144 52.0221429,105.897144 L47.4557143,105.897144 L47.4557143,44.9334804 C47.4557143,44.5254237 47.1278571,44.1946831 46.7207143,44.1946831 L44.8435714,44.1946831 L44.8435714,4.6217785 L52.0221429,4.6217785 C52.4271429,4.6217785 52.7592857,4.29103785 52.7592857,3.88298119 L52.7592857,0.73664964 C52.7592857,0.328592988 52.4292857,0 52.0221429,0 L7.32428571,0 C6.91928571,0 6.58714286,0.328592988 6.58714286,0.73664964 L6.58714286,3.88298119 C6.58714286,4.29103785 6.91714286,4.6217785 7.32428571,4.6217785 L14.4021429,4.6217785 L14.4021429,44.1946831 L12.4714286,44.1946831 C12.0685714,44.1946831 11.7364286,44.5232761 11.7364286,44.9334804 L11.7364286,105.899292 L7.32428571,105.899292 C6.91928571,105.899292 6.58714286,106.230033 6.58714286,106.638089 L6.58714286,109.784421 C6.58714286,110.19033 6.91714286,110.523218 7.32428571,110.523218 L10.2642857,110.523218 L10.2642857,113.405387 L0.732857143,113.405387 C0.327857143,113.405387 0,113.731832 0,114.139889 L0,118.540457 C0,118.946366 0.325714286,119.279255 0.732857143,119.279255 L10.1635714,119.279255 L10.1635714,123.632575 C10.1635714,124.036336 10.4914286,124.367077 10.8985714,124.367077 L48.4692857,124.367077 C48.8742857,124.367077 49.2042857,124.036336 49.2042857,123.632575 L49.2042857,119.274959 L58.6735714,119.274959 C59.0785714,119.274959 59.4085714,118.944219 59.4085714,118.536162 L59.4085714,114.135593 C59.4085714,113.729684 59.0785714,113.403239 58.6735714,113.403239 Z M19.5964286,60.9271535 C20.0035714,60.9271535 20.3335714,60.5985605 20.3335714,60.1905038 L20.3335714,45.6658347 L38.8692857,45.6658347 L38.8692857,60.1905038 C38.8692857,60.5964128 39.1971429,60.9271535 39.6042857,60.9271535 C40.0114286,60.9271535 40.3392857,60.5985605 40.3392857,60.1905038 L40.3392857,45.6658347 L43.3778571,45.6658347 L43.3778571,64.9089273 L15.87,64.9089273 L15.87,45.6658347 L18.8614286,45.6658347 L18.8614286,60.1905038 C18.8614286,60.5985605 19.1892857,60.9271535 19.5964286,60.9271535 Z M38.8692857,44.1946831 L20.3335714,44.1946831 L20.3335714,4.6217785 L38.8692857,4.6217785 L38.8692857,44.1946831 Z M43.3457143,66.3843743 C43.2664286,67.0931042 42.6835714,67.6557929 41.955,67.6557929 C41.8842857,67.6557929 41.8178571,67.6837126 41.7492857,67.7008939 C41.6764286,67.6772696 41.6014286,67.6557929 41.52,67.6557929 L17.7835714,67.6557929 C17.6914286,67.6557929 17.6035714,67.6772696 17.5242857,67.7094846 C17.4492857,67.6837126 17.3742857,67.6557929 17.2928571,67.6557929 C16.5621429,67.6557929 15.9835714,67.0931042 15.9042857,66.3843743 L43.3457143,66.3843743 Z M17.8842857,69.1312398 L41.3592857,69.1312398 L42.4885714,74.528326 L16.7078571,74.528326 L17.8842857,69.1312398 Z M16.3842857,76.0037729 L42.795,76.0037729 L43.0907143,77.4083469 L16.08,77.4083469 L16.3842857,76.0037729 Z M15.87,78.8816462 L43.3757143,78.8816462 L43.3757143,105.751103 L15.87,105.751103 L15.87,78.8816462 Z M45.9878571,45.6679824 L45.9878571,105.753251 L44.8457143,105.753251 L44.8457143,78.1471442 C44.8457143,77.9495589 44.7664286,77.7713025 44.64,77.6402949 L42.8314286,68.9959368 C43.9992857,68.6222429 44.8435714,67.5247852 44.8435714,66.2318899 C44.8435714,66.2147086 44.835,66.1975273 44.835,66.1824936 C44.835,66.1674599 44.8435714,66.1481309 44.8435714,66.1330973 L44.8435714,45.6722777 L45.9878571,45.6722777 L45.9878571,45.6679824 Z M43.3757143,44.1946831 L40.3371429,44.1946831 L40.3371429,4.6217785 L43.3757143,4.6217785 L43.3757143,44.1946831 Z M8.05928571,1.47544695 L51.2871429,1.47544695 L51.2871429,3.14847922 L8.05928571,3.14847922 L8.05928571,1.47544695 Z M15.87,4.6217785 L18.8614286,4.6217785 L18.8614286,44.1946831 L15.87,44.1946831 L15.87,4.6217785 Z M13.2064286,45.6679824 L14.4021429,45.6679824 L14.4021429,65.8345716 C14.4021429,65.903297 14.4235714,65.967727 14.4407143,66.0343046 C14.4235714,66.096587 14.4021429,66.1631646 14.4021429,66.2318899 C14.4021429,67.5247852 15.2442857,68.6179475 16.4078571,68.9959368 L14.4878571,77.8164035 C14.4385714,77.9173439 14.4042857,78.0268749 14.4042857,78.1471442 L14.4042857,105.753251 L13.2085714,105.753251 L13.2085714,45.6679824 L13.2064286,45.6679824 Z M8.05928571,107.374739 L51.2871429,107.374739 L51.2871429,109.043476 L8.05928571,109.043476 L8.05928571,107.374739 Z M11.7364286,110.52107 L47.7342857,110.52107 L47.7342857,113.403239 L11.7364286,113.403239 L11.7364286,110.52107 Z M11.6357143,119.274959 L14.6207143,119.274959 L14.6207143,122.895925 L11.6357143,122.895925 L11.6357143,119.274959 Z M43.4335714,119.274959 L43.4335714,122.895925 L40.8407143,122.895925 L40.8407143,119.274959 L43.4335714,119.274959 Z M39.3685714,122.895925 L36.7757143,122.895925 L36.7757143,119.274959 L39.3685714,119.274959 L39.3685714,122.895925 Z M35.3035714,122.895925 L32.7128571,122.895925 L32.7128571,119.274959 L35.3035714,119.274959 L35.3035714,122.895925 Z M31.2385714,122.895925 L28.3842857,122.895925 L28.3842857,119.274959 L31.2385714,119.274959 L31.2385714,122.895925 Z M26.9142857,122.895925 L24.3214286,122.895925 L24.3214286,119.274959 L26.9142857,119.274959 L26.9142857,122.895925 Z M22.8471429,122.895925 L20.1535714,122.895925 L20.1535714,119.274959 L22.8471429,119.274959 L22.8471429,122.895925 Z M18.6835714,122.895925 L16.0907143,122.895925 L16.0907143,119.274959 L18.6835714,119.274959 L18.6835714,122.895925 Z M47.7321429,122.895925 L44.9035714,122.895925 L44.9035714,119.274959 L47.7321429,119.274959 L47.7321429,122.895925 Z M57.9364286,117.799512 L1.47,117.799512 L1.47,114.876538 L57.9385714,114.876538 L57.9385714,117.799512 L57.9364286,117.799512 Z"/>
      <path d="M30.7092857 57.9438704C32.5178571 57.9438704 33.9878571 56.4684235 33.9878571 54.6557929 33.9878571 52.8431623 32.5157143 51.369863 30.7092857 51.369863 28.9028571 51.369863 27.4285714 52.84531 27.4285714 54.6557929 27.4285714 56.4705712 28.9007143 57.9438704 30.7092857 57.9438704zM30.7092857 52.8410146C31.7057143 52.8410146 32.5178571 53.6549803 32.5178571 54.6557929 32.5178571 55.6566055 31.7057143 56.4705712 30.7092857 56.4705712 29.7107143 56.4705712 28.8985714 55.6566055 28.8985714 54.6557929 28.8985714 53.6549803 29.7107143 52.8410146 30.7092857 52.8410146zM30.7092857 44.247388C32.5178571 44.247388 33.9878571 42.7697934 33.9878571 40.9593104 33.9878571 39.1445322 32.5157143 37.6712329 30.7092857 37.6712329 28.9028571 37.6712329 27.4285714 39.1466798 27.4285714 40.9593104 27.4285714 42.771941 28.9007143 44.247388 30.7092857 44.247388zM30.7092857 39.1445322C31.7057143 39.1445322 32.5178571 39.9563501 32.5178571 40.9593104 32.5178571 41.9579754 31.7057143 42.771941 30.7092857 42.771941 29.7107143 42.771941 28.8985714 41.9579754 28.8985714 40.9593104 28.8985714 39.9563501 29.7107143 39.1445322 30.7092857 39.1445322zM30.7092857 28.8321337C32.5178571 28.8321337 33.9878571 27.3588345 33.9878571 25.5483515 33.9878571 23.7335733 32.5157143 22.260274 30.7092857 22.260274 28.9028571 22.260274 27.4285714 23.7357209 27.4285714 25.5483515 27.4285714 27.3588345 28.9007143 28.8321337 30.7092857 28.8321337zM30.7092857 23.7335733C31.7057143 23.7335733 32.5178571 24.5453912 32.5178571 25.5483515 32.5178571 26.5470165 31.7057143 27.3588345 30.7092857 27.3588345 29.7107143 27.3588345 28.8985714 26.5470165 28.8985714 25.5483515 28.8985714 24.5453912 29.7107143 23.7335733 30.7092857 23.7335733zM30.7092857 16.8501277C32.5178571 16.8501277 33.9878571 15.3746808 33.9878571 13.5620502 33.9878571 11.7494195 32.5157143 10.2739726 30.7092857 10.2739726 28.9028571 10.2739726 27.4285714 11.7494195 27.4285714 13.5620502 27.4285714 15.3746808 28.9007143 16.8501277 30.7092857 16.8501277zM30.7092857 11.7472719C31.7057143 11.7472719 32.5178571 12.5590899 32.5178571 13.5620502 32.5178571 14.5607151 31.7057143 15.3746808 30.7092857 15.3746808 29.7107143 15.3746808 28.8985714 14.5607151 28.8985714 13.5620502 28.8985714 12.5612375 29.7107143 11.7472719 30.7092857 11.7472719z"/>
    </g>
  </g>
</svg>
